<?xml version="1.0" encoding="utf-8"?>
<!-- Generator: Adobe Illustrator 26.2.1, SVG Export Plug-In . SVG Version: 6.00 Build 0)  -->
<svg version="1.1" id="Layer_1" xmlns="http://www.w3.org/2000/svg" xmlns:xlink="http://www.w3.org/1999/xlink" x="0px" y="0px"
	 viewBox="0 0 50 31" enable-background="new 0 0 50 31" xml:space="preserve">
<path d="M7.1,8.8l12.4-8.3v30L7.1,22.2H0.5V8.8H7.1z"/>
<path d="M28.4,4.6c5.9,6,5.9,15.8,0,21.8l-2.9-2.8c4.4-4.5,4.4-11.8,0-16.2L28.4,4.6z"/>
<path d="M43.5,15.5c0,5.7-2.3,11-6.4,15l-2.8-2.9c3.4-3.2,5.2-7.6,5.2-12.1c0-4.6-1.8-8.9-5.2-12.1l2.8-2.9
	C41.2,4.5,43.5,9.8,43.5,15.5z"/>
</svg>
